# xmcd
# 
# Track frame offsets:
#     150
#     29182
#     57442
#     86440
#     105917
#     125435
#     144290
#     163100
#     178860
#     192867
#     210445
# 
# Disc length: 2969
# 
# Revision: 3
# Processed by: cddbd v1.5.2PL0 Copyright (c) Steve Scherf et al.
# Submitted via: BonkEnc v1.0.5
# 
DISCID=950b970b
DTITLE=Johnson Luther - lonesome in my bedroom
DYEAR=1975
DGENRE=Blues
TTITLE0=Lonesome in my Bedroom
TTITLE1=Honey Bee
TTITLE2=Long Distance Call
TTITLE3=Rock me slow and Easy
TTITLE4=Hush, Hush
TTITLE5=Little Queenie
TTITLE6=Jammin' with Willie
TTITLE7=Please don't take my baby Nowhere
TTITLE8=She's my Babe
TTITLE9=They call me the Popcorn Man
TTITLE10=Please give me that Love
EXTD=YEAR: 1975 ID3G:   0
EXTT0=
EXTT1=
EXTT2=
EXTT3=
EXTT4=
EXTT5=
EXTT6=
EXTT7=
EXTT8=
EXTT9=
EXTT10=
PLAYORDER=
